HIERARCHY
ROOT Hips
{
  OFFSET 0 0 0
  CHANNELS 6 Xposition Yposition Zposition Zrotation Yrotation Xrotation
  JOINT LeftThigh
  {
    OFFSET 8.409438 0 -5.917753
    CHANNELS 3 Zrotation Yrotation Xrotation
    JOINT LeftLeg
    {
      OFFSET 0 0 -42.358652
      CHANNELS 3 Zrotation Yrotation Xrotation
      JOINT LeftFoot
      {
        OFFSET 0 0 -39.357303
        CHANNELS 3 Zrotation Yrotation Xrotation
      }
    }
  }
  JOINT RightThigh
  {
    OFFSET -8.409438 0 -5.917753
    CHANNELS 3 Zrotation Yrotation Xrotation
    JOINT RightLeg
    {
      OFFSET 0 0 -42.358652
      CHANNELS 3 Zrotation Yrotation Xrotation
      JOINT RightFoot
      {
        OFFSET 0 0 -39.357303
        CHANNELS 3 Zrotation Yrotation Xrotation
      }
    }
  }
  JOINT SpineLow
  {
    OFFSET 0 0 4.719101
    CHANNELS 3 Zrotation Yrotation Xrotation
    JOINT SpineMid
    {
      OFFSET 0 0 12.899191
      CHANNELS 3 Zrotation Yrotation Xrotation
      JOINT Chest
      {
        OFFSET 0 0 12.899191
        CHANNELS 3 Zrotation Yrotation Xrotation
        JOINT LeftShoulder
        {
          OFFSET 7.550562 1.41573 9.438202
          CHANNELS 3 Zrotation Yrotation Xrotation
          JOINT LeftArm
          {
            OFFSET 9.155056 0 4.247191
            CHANNELS 3 Zrotation Yrotation Xrotation
            JOINT LeftForearm
            {
              OFFSET 0 0 25.771955
              CHANNELS 3 Zrotation Yrotation Xrotation
              JOINT LeftHand
              {
                OFFSET 0 0 25.197169
                CHANNELS 3 Zrotation Yrotation Xrotation
              }
            }
          }
        }
        JOINT RightShoulder
        {
          OFFSET -7.550562 1.41573 9.438202
          CHANNELS 3 Zrotation Yrotation Xrotation
          JOINT RightArm
          {
            OFFSET -9.155056 0 4.247191
            CHANNELS 3 Zrotation Yrotation Xrotation
            JOINT RightForearm
            {
              OFFSET 0 0 -25.771955
              CHANNELS 3 Zrotation Yrotation Xrotation
              JOINT RightHand
              {
                OFFSET 0 0 -25.197169
                CHANNELS 3 Zrotation Yrotation Xrotation
              }
            }
          }
        }
        JOINT Neck
        {
          OFFSET 0 0 15.101124
          CHANNELS 3 Zrotation Yrotation Xrotation
          JOINT Head
          {
            OFFSET 0 0 11.325843
            CHANNELS 3 Zrotation Yrotation Xrotation
            End Site
            {
              OFFSET 0 0 14.157303
            }
          }
        }
      }
    }
  }
}
MOTION
Frames: 8
Frame Time: 0.0
0.0  89.887642  0.0  25.028462  -65.518735  -126.427128  37.840881  -33.149578  -23.146026  23.068629  24.318435  80.929485  -2.382195  -1.169802  -1.938766  -23.96566  11.5107  -30.910075  31.993905  13.266356  69.498963  12.740476  8.229055  -6.469002  0.880464  2.034209  0.10117  2.420441  5.555751  0.351459  2.420441  5.555751  0.351459  -5.340229  24.465299  14.285571  -78.70631  62.607344  -45.359574  -39.512478  -6.807402  74.591829  52.365333  -16.977719  25.925291  -1.914605  4.759582  29.325497  133.507059  33.834937  39.843398  -5.104366  13.342346  -79.043687  84.245644  13.874774  -26.408898  8.652922  -8.137719  7.824967  6.584799  -5.995311  5.976121  
0.0  89.887642  0.0  25.068274  -65.007955  -126.432555  36.54707  -33.648201  -22.612035  24.267339  24.531674  80.785611  -2.497513  -1.082746  -1.85964  -24.658805  11.806577  -30.974729  32.007597  13.344315  69.243683  12.833037  8.1077  -6.369559  0.886179  2.076756  0.111953  2.437431  5.671597  0.383081  2.437431  5.671598  0.383081  -5.504055  24.63825  14.600618  -78.691397  62.239511  -45.28918  -39.459976  -6.785545  74.786553  52.225683  -16.819966  26.138325  -2.192037  4.814445  29.53951  133.186609  33.976859  39.56215  -4.680644  12.939782  -78.99005  84.356837  14.025372  -26.338271  8.50845  -8.051046  7.836556  6.475866  -5.931916  5.9818  
0.0  89.887642  0.0  25.064503  -64.629163  -126.377639  35.558703  -34.05546  -22.144942  25.405461  24.223356  80.742528  -2.965996  -1.10194  -1.847431  -24.781756  12.417306  -30.895865  31.467152  13.186097  68.831466  12.784101  7.914128  -6.240702  0.883522  2.084644  0.099884  2.429187  5.693617  0.350091  2.429187  5.693617  0.350091  -5.497733  24.939357  15.08963  -78.822513  61.856596  -45.398765  -39.521741  -6.20437  75.279092  52.768991  -16.387319  25.936307  -2.005864  4.890039  30.044238  132.718888  34.287315  39.472637  -4.790692  12.345527  -78.841367  84.625519  14.078922  -26.524401  8.55026  -7.911764  7.938781  6.50709  -5.825481  6.057283  
0.0  89.887642  0.0  24.869751  -64.34282  -126.087014  35.354176  -34.250891  -22.007437  25.818274  23.970173  80.506415  -3.477465  -1.073666  -1.831354  -25.512464  12.577356  -31.106348  31.485148  12.9478  68.556354  12.716116  7.85253  -6.096774  0.843917  2.070141  0.078417  2.318707  5.654977  0.287343  2.318707  5.654977  0.287343  -5.197047  25.173839  15.563243  -79.301395  61.569765  -45.78426  -39.539168  -6.181281  75.340254  52.889325  -16.261775  25.869703  -1.859753  5.010349  30.265228  132.731708  34.343782  39.475522  -4.70711  11.90457  -78.704677  84.798001  13.941709  -26.327478  8.578854  -7.837364  8.077269  6.529548  -5.767389  6.160508  
0.0  89.887642  0.0  24.86709  -64.20985  -125.938095  35.981886  -34.22821  -22.153989  25.369647  24.083225  79.963005  -3.860118  -1.00636  -1.762698  -25.977782  12.774334  -31.361315  31.097299  12.685903  68.303158  12.518109  7.500977  -5.831161  0.800363  2.050757  0.079827  2.199352  5.602174  0.286807  2.199352  5.602174  0.286807  -4.83021  25.248781  15.754155  -80.262231  61.39402  -46.585525  -39.427294  -5.443017  75.823313  53.018201  -16.517618  25.634378  -1.46755  5.047905  30.301306  132.647395  34.438616  39.523157  -4.705979  11.490205  -78.516639  85.018746  13.687421  -25.783782  8.771675  -7.762797  8.122983  6.67376  -5.708308  6.196394  
0.0  89.887642  0.0  24.872558  -64.089506  -125.822396  36.986728  -34.097165  -22.420851  24.581431  24.465727  79.374876  -4.031248  -0.923541  -1.710235  -26.272798  12.937504  -31.62976  30.807844  12.564856  68.168571  12.495588  7.490512  -5.656889  0.77058  2.040259  0.110249  2.120254  5.572656  0.367256  2.120254  5.572656  0.367255  -4.69143  25.198723  15.595891  -81.261788  61.439704  -47.504139  -39.326976  -5.636871  75.728318  53.188448  -16.536556  25.575876  -1.345683  5.056161  30.016759  132.697913  34.449469  39.549425  -4.622933  11.20138  -78.313564  85.145321  13.476378  -25.414463  8.796342  -7.768575  8.108063  6.692102  -5.712534  6.185612  
0.0  89.887642  0.0  25.055558  -64.03078  -125.878593  38.128108  -33.955776  -22.697857  23.731229  25.084281  78.741212  -3.981432  -0.845125  -1.615996  -26.481546  13.144014  -31.877689  30.427285  12.472435  68.078559  12.517601  7.524789  -5.558795  0.784768  2.04952  0.163609  2.163739  5.596125  0.514926  2.163739  5.596125  0.514926  -4.892957  24.981278  15.232657  -82.370509  61.648217  -48.305273  -39.210095  -5.557788  75.729813  53.936795  -16.416014  25.160811  -1.293803  4.801991  29.877663  132.627576  34.604102  39.779652  -4.513025  11.011447  -78.073456  85.194993  13.273721  -25.05393  8.834296  -7.82198  8.020539  6.719951  -5.753356  6.12121  
0.0  89.887642  0.0  25.157702  -63.984777  -125.893521  39.133826  -33.942401  -22.965819  23.009821  25.71422  78.177535  -3.874508  -0.745182  -1.523692  -26.666467  13.16762  -32.086146  30.249994  12.432417  68.066891  12.525306  7.526219  -5.462182  0.807334  2.067123  0.215802  2.230231  5.642271  0.660422  2.230231  5.642271  0.660421  -5.151301  24.713246  14.865267  -83.210943  61.875579  -49.135179  -39.22006  -5.710014  75.582901  54.032936  -16.441922  25.203135  -1.490561  4.625888  29.467973  132.659071  34.626194  39.805951  -4.42113  10.861746  -77.935571  85.137615  13.114046  -24.768192  8.693627  -7.948291  7.938526  6.614846  -5.85108  6.059447  
